<svg width="200" height="200" viewBox="0 0 200 200" fill="none" xmlns="http://www.w3.org/2000/svg">
<path d="M151.544 109.066C153.533 110.981 153.59 114.144 151.672 116.131L114.725 154.383C113.783 155.358 112.485 155.909 111.129 155.911L36.797 156.001C32.3799 156.006 30.1234 150.71 33.19 147.536L106.007 72.1464C107.925 70.1602 111.093 70.103 113.082 72.0187L151.544 109.066Z" fill="#6C57EB"/>
<path d="M48.3553 90.7617C46.3705 88.8418 46.3201 85.6786 48.2428 83.6964L85.2712 45.5226C86.2149 44.5498 87.5136 44.0011 88.8698 44.0024L163.202 44.0702C167.619 44.0742 169.864 49.3747 166.791 52.543L93.8139 127.777C91.8913 129.76 88.7237 129.81 86.7388 127.89L48.3553 90.7617Z" fill="#826EFD"/>
</svg>
