<svg width="610" height="200" viewBox="0 0 610 200" fill="none" xmlns="http://www.w3.org/2000/svg">
<path d="M126.545 109.066C128.534 110.982 128.591 114.145 126.672 116.131L89.7251 154.384C88.7835 155.358 87.486 155.91 86.1297 155.911L11.7971 156.001C7.38007 156.007 5.12362 150.711 8.19014 147.536L81.0073 72.1467C82.9257 70.1605 86.0932 70.1033 88.0821 72.019L126.545 109.066Z" fill="#F3F3F3"/>
<path d="M23.3555 90.7619C21.3707 88.842 21.3203 85.6788 23.243 83.6967L60.2717 45.5226C61.2153 44.5498 62.514 44.0012 63.8703 44.0024L138.203 44.0702C142.62 44.0743 144.865 49.3747 141.792 52.543L68.8144 127.778C66.8917 129.76 63.7241 129.81 61.7393 127.891L23.3555 90.7619Z" fill="white"/>
<path d="M166.38 116.19C165.96 115.63 165.75 114.93 165.75 114.09C165.75 112.877 166.357 111.85 167.57 111.01C168.223 110.59 168.9 110.38 169.6 110.38C170.58 110.38 171.513 110.823 172.4 111.71C173.8 113.157 175.247 114.23 176.74 114.93C178.28 115.63 180.123 115.98 182.27 115.98C185.91 115.84 187.73 114.463 187.73 111.85C187.73 110.497 187.1 109.47 185.84 108.77C184.627 108.07 182.713 107.37 180.1 106.67C177.393 105.923 175.177 105.177 173.45 104.43C171.77 103.683 170.3 102.563 169.04 101.07C167.827 99.53 167.22 97.4767 167.22 94.91C167.22 92.67 167.85 90.7333 169.11 89.1C170.417 87.42 172.097 86.1367 174.15 85.25C176.25 84.3167 178.467 83.85 180.8 83.85C183.18 83.85 185.56 84.2933 187.94 85.18C190.32 86.0667 192.187 87.3733 193.54 89.1C194.147 89.8467 194.45 90.6867 194.45 91.62C194.45 92.6933 194.007 93.58 193.12 94.28C192.467 94.7933 191.72 95.05 190.88 95.05C189.853 95.05 189.013 94.7233 188.36 94.07C187.52 93.0433 186.423 92.2267 185.07 91.62C183.763 91.0133 182.27 90.71 180.59 90.71C177.043 90.71 175.27 91.9933 175.27 94.56C175.27 95.5867 175.597 96.4267 176.25 97.08C176.903 97.6867 177.72 98.1767 178.7 98.55C179.727 98.8767 181.15 99.2967 182.97 99.81C185.49 100.51 187.59 101.233 189.27 101.98C190.95 102.727 192.373 103.87 193.54 105.41C194.707 106.95 195.29 108.98 195.29 111.5C195.29 113.787 194.613 115.793 193.26 117.52C191.907 119.2 190.157 120.483 188.01 121.37C185.91 122.257 183.74 122.7 181.5 122.7C178.42 122.7 175.55 122.187 172.89 121.16C170.23 120.133 168.06 118.477 166.38 116.19ZM220.38 114.09C221.033 114.09 221.616 114.417 222.13 115.07C222.69 115.677 222.97 116.493 222.97 117.52C222.97 118.78 222.27 119.853 220.87 120.74C219.516 121.58 217.976 122 216.25 122C213.356 122 210.906 121.393 208.9 120.18C206.94 118.92 205.96 116.283 205.96 112.27V92.95H202.74C201.62 92.95 200.686 92.5767 199.94 91.83C199.193 91.0833 198.82 90.15 198.82 89.03C198.82 87.9567 199.193 87.07 199.94 86.37C200.686 85.6233 201.62 85.25 202.74 85.25H205.96V80.77C205.96 79.5567 206.356 78.5533 207.15 77.76C207.99 76.92 209.016 76.5 210.23 76.5C211.396 76.5 212.376 76.92 213.17 77.76C213.963 78.5533 214.36 79.5567 214.36 80.77V85.25H219.33C220.45 85.25 221.383 85.6233 222.13 86.37C222.876 87.1167 223.25 88.05 223.25 89.17C223.25 90.2433 222.876 91.1533 222.13 91.9C221.383 92.6 220.45 92.95 219.33 92.95H214.36V111.92C214.36 112.9 214.616 113.623 215.13 114.09C215.643 114.51 216.343 114.72 217.23 114.72C217.603 114.72 218.116 114.627 218.77 114.44C219.33 114.207 219.866 114.09 220.38 114.09ZM264.22 102.4C264.174 103.52 263.73 104.43 262.89 105.13C262.05 105.83 261.07 106.18 259.95 106.18H236.85C237.41 108.933 238.694 111.103 240.7 112.69C242.707 114.23 244.97 115 247.49 115C249.404 115 250.897 114.837 251.97 114.51C253.044 114.137 253.884 113.763 254.49 113.39C255.144 112.97 255.587 112.69 255.82 112.55C256.66 112.13 257.454 111.92 258.2 111.92C259.18 111.92 260.02 112.27 260.72 112.97C261.42 113.67 261.77 114.487 261.77 115.42C261.77 116.68 261.117 117.823 259.81 118.85C258.504 119.923 256.754 120.833 254.56 121.58C252.367 122.327 250.15 122.7 247.91 122.7C243.99 122.7 240.56 121.883 237.62 120.25C234.727 118.617 232.487 116.377 230.9 113.53C229.314 110.637 228.52 107.393 228.52 103.8C228.52 99.7867 229.36 96.2633 231.04 93.23C232.72 90.1967 234.937 87.8867 237.69 86.3C240.444 84.6667 243.384 83.85 246.51 83.85C249.59 83.85 252.484 84.69 255.19 86.37C257.944 88.05 260.137 90.3133 261.77 93.16C263.404 96.0067 264.22 99.0867 264.22 102.4ZM246.51 91.55C241.097 91.55 237.9 94.0933 236.92 99.18H255.26V98.69C255.074 96.73 254.117 95.05 252.39 93.65C250.664 92.25 248.704 91.55 246.51 91.55ZM314.416 83.85C319.036 83.85 322.232 85.2733 324.006 88.12C325.779 90.92 326.666 94.8167 326.666 99.81V117.73C326.666 118.943 326.269 119.97 325.476 120.81C324.682 121.603 323.679 122 322.466 122C321.252 122 320.249 121.603 319.456 120.81C318.662 119.97 318.266 118.943 318.266 117.73V99.81C318.266 97.2433 317.752 95.2367 316.726 93.79C315.746 92.2967 313.996 91.55 311.476 91.55C308.862 91.55 306.809 92.3433 305.316 93.93C303.869 95.47 303.146 97.43 303.146 99.81V117.73C303.146 118.943 302.749 119.97 301.956 120.81C301.162 121.603 300.159 122 298.946 122C297.732 122 296.729 121.603 295.936 120.81C295.142 119.97 294.746 118.943 294.746 117.73V99.81C294.746 97.2433 294.232 95.2367 293.206 93.79C292.226 92.2967 290.476 91.55 287.956 91.55C285.342 91.55 283.289 92.3433 281.796 93.93C280.349 95.47 279.626 97.43 279.626 99.81V117.73C279.626 118.943 279.229 119.97 278.436 120.81C277.642 121.603 276.639 122 275.426 122C274.212 122 273.209 121.603 272.416 120.81C271.622 119.97 271.226 118.943 271.226 117.73V88.82C271.226 87.6067 271.622 86.6033 272.416 85.81C273.209 84.97 274.212 84.55 275.426 84.55C276.639 84.55 277.642 84.97 278.436 85.81C279.229 86.6033 279.626 87.6067 279.626 88.82V89.94C280.886 88.26 282.472 86.8367 284.386 85.67C286.346 84.4567 288.516 83.85 290.896 83.85C296.776 83.85 300.532 86.4167 302.166 91.55C303.239 89.59 304.849 87.8167 306.996 86.23C309.189 84.6433 311.662 83.85 314.416 83.85ZM338.977 104.71C337.764 104.71 336.737 104.313 335.897 103.52C335.104 102.727 334.707 101.723 334.707 100.51C334.707 99.3433 335.104 98.3633 335.897 97.57C336.737 96.7767 337.764 96.38 338.977 96.38H351.157C352.37 96.38 353.374 96.8 354.167 97.64C355.007 98.4333 355.427 99.4367 355.427 100.65C355.427 101.817 355.007 102.797 354.167 103.59C353.374 104.337 352.37 104.71 351.157 104.71H338.977ZM382.901 83.85C386.121 83.85 389.038 84.69 391.651 86.37C394.264 88.0033 396.318 90.29 397.811 93.23C399.351 96.17 400.121 99.5067 400.121 103.24C400.121 106.973 399.374 110.333 397.881 113.32C396.388 116.26 394.334 118.57 391.721 120.25C389.154 121.883 386.308 122.7 383.181 122.7C380.941 122.7 378.818 122.257 376.811 121.37C374.851 120.437 373.218 119.317 371.911 118.01V118.43C371.911 119.643 371.514 120.67 370.721 121.51C369.928 122.303 368.924 122.7 367.711 122.7C366.498 122.7 365.494 122.303 364.701 121.51C363.908 120.717 363.511 119.69 363.511 118.43V74.47C363.511 73.2567 363.908 72.2533 364.701 71.46C365.494 70.62 366.498 70.2 367.711 70.2C368.924 70.2 369.928 70.62 370.721 71.46C371.514 72.2533 371.911 73.2567 371.911 74.47V89.1C373.031 87.7 374.594 86.4867 376.601 85.46C378.608 84.3867 380.708 83.85 382.901 83.85ZM381.851 115C384.838 115 387.288 113.88 389.201 111.64C391.114 109.4 392.071 106.6 392.071 103.24C392.071 99.88 391.114 97.1033 389.201 94.91C387.334 92.67 384.884 91.55 381.851 91.55C378.818 91.55 376.344 92.67 374.431 94.91C372.518 97.1033 371.561 99.88 371.561 103.24C371.561 106.6 372.518 109.4 374.431 111.64C376.344 113.88 378.818 115 381.851 115ZM443.104 103.31C443.104 107.043 442.264 110.403 440.584 113.39C438.904 116.33 436.594 118.617 433.654 120.25C430.761 121.883 427.564 122.7 424.064 122.7C420.518 122.7 417.298 121.883 414.404 120.25C411.511 118.617 409.224 116.33 407.544 113.39C405.864 110.403 405.024 107.043 405.024 103.31C405.024 99.5767 405.864 96.24 407.544 93.3C409.224 90.3133 411.511 88.0033 414.404 86.37C417.298 84.69 420.518 83.85 424.064 83.85C427.564 83.85 430.761 84.69 433.654 86.37C436.594 88.0033 438.904 90.3133 440.584 93.3C442.264 96.24 443.104 99.5767 443.104 103.31ZM434.704 103.31C434.704 101.023 434.214 98.9933 433.234 97.22C432.301 95.4 431.018 94 429.384 93.02C427.798 92.04 426.024 91.55 424.064 91.55C422.104 91.55 420.308 92.04 418.674 93.02C417.088 94 415.804 95.4 414.824 97.22C413.891 98.9933 413.424 101.023 413.424 103.31C413.424 105.597 413.891 107.627 414.824 109.4C415.804 111.173 417.088 112.55 418.674 113.53C420.308 114.51 422.104 115 424.064 115C426.024 115 427.798 114.51 429.384 113.53C431.018 112.55 432.301 111.173 433.234 109.4C434.214 107.627 434.704 105.597 434.704 103.31ZM477.912 84.55C479.126 84.55 480.129 84.97 480.922 85.81C481.716 86.6033 482.112 87.6067 482.112 88.82V106.6C482.112 111.64 480.712 115.583 477.912 118.43C475.159 121.277 471.216 122.7 466.082 122.7C460.949 122.7 457.006 121.277 454.252 118.43C451.499 115.583 450.122 111.64 450.122 106.6V88.82C450.122 87.6067 450.519 86.6033 451.312 85.81C452.106 84.97 453.109 84.55 454.322 84.55C455.536 84.55 456.539 84.97 457.332 85.81C458.126 86.6033 458.522 87.6067 458.522 88.82V106.6C458.522 109.447 459.152 111.57 460.412 112.97C461.672 114.323 463.562 115 466.082 115C468.649 115 470.562 114.323 471.822 112.97C473.082 111.57 473.712 109.447 473.712 106.6V88.82C473.712 87.6067 474.109 86.6033 474.902 85.81C475.696 84.97 476.699 84.55 477.912 84.55ZM511.226 83.85C515.986 83.85 519.276 85.2733 521.096 88.12C522.916 90.92 523.826 94.8167 523.826 99.81V117.73C523.826 118.943 523.43 119.97 522.636 120.81C521.843 121.603 520.84 122 519.626 122C518.413 122 517.41 121.603 516.616 120.81C515.823 119.97 515.426 118.943 515.426 117.73V99.81C515.426 97.2433 514.89 95.2367 513.816 93.79C512.743 92.2967 510.9 91.55 508.286 91.55C505.58 91.55 503.456 92.3433 501.916 93.93C500.376 95.47 499.606 97.43 499.606 99.81V117.73C499.606 118.943 499.21 119.97 498.416 120.81C497.623 121.603 496.62 122 495.406 122C494.193 122 493.19 121.603 492.396 120.81C491.603 119.97 491.206 118.943 491.206 117.73V88.82C491.206 87.6067 491.603 86.6033 492.396 85.81C493.19 84.97 494.193 84.55 495.406 84.55C496.62 84.55 497.623 84.97 498.416 85.81C499.21 86.6033 499.606 87.6067 499.606 88.82V90.01C500.866 88.33 502.5 86.8833 504.506 85.67C506.56 84.4567 508.8 83.85 511.226 83.85ZM563.215 70.2C564.429 70.2 565.432 70.5967 566.225 71.39C567.019 72.1833 567.415 73.21 567.415 74.47V117.73C567.415 118.943 567.019 119.97 566.225 120.81C565.432 121.603 564.429 122 563.215 122C562.002 122 560.999 121.603 560.205 120.81C559.459 120.017 559.062 119.013 559.015 117.8C557.849 119.153 556.262 120.32 554.255 121.3C552.295 122.233 550.219 122.7 548.025 122.7C544.805 122.7 541.889 121.883 539.275 120.25C536.662 118.57 534.585 116.26 533.045 113.32C531.552 110.38 530.805 107.043 530.805 103.31C530.805 99.5767 531.552 96.24 533.045 93.3C534.539 90.3133 536.569 88.0033 539.135 86.37C541.749 84.69 544.619 83.85 547.745 83.85C549.985 83.85 552.085 84.27 554.045 85.11C556.005 85.9033 557.662 86.93 559.015 88.19V74.47C559.015 73.2567 559.412 72.2533 560.205 71.46C560.999 70.62 562.002 70.2 563.215 70.2ZM549.075 115C552.109 115 554.582 113.903 556.495 111.71C558.409 109.47 559.365 106.67 559.365 103.31C559.365 99.95 558.409 97.15 556.495 94.91C554.582 92.67 552.109 91.55 549.075 91.55C546.089 91.55 543.639 92.67 541.725 94.91C539.812 97.15 538.855 99.95 538.855 103.31C538.855 106.67 539.789 109.47 541.655 111.71C543.569 113.903 546.042 115 549.075 115Z" fill="white"/>
</svg>
