<svg width="610" height="200" viewBox="0 0 610 200" fill="none" xmlns="http://www.w3.org/2000/svg">
<path d="M126.545 109.066C128.534 110.982 128.591 114.145 126.672 116.131L89.7251 154.384C88.7835 155.358 87.486 155.91 86.1297 155.911L11.7971 156.001C7.38007 156.007 5.12362 150.711 8.19014 147.536L81.0073 72.1467C82.9257 70.1605 86.0932 70.1033 88.0821 72.019L126.545 109.066Z" fill="#F3F3F3"/>
<path d="M23.3555 90.7619C21.3707 88.842 21.3203 85.6788 23.243 83.6967L60.2717 45.5226C61.2153 44.5498 62.514 44.0012 63.8703 44.0024L138.203 44.0702C142.62 44.0743 144.865 49.3747 141.792 52.543L68.8144 127.778C66.8917 129.76 63.7241 129.81 61.7393 127.891L23.3555 90.7619Z" fill="white"/>
<path d="M185 122.7C181.64 122.7 178.653 122.28 176.04 121.44C173.427 120.6 170.977 119.177 168.69 117.17C167.43 116.05 166.8 114.813 166.8 113.46C166.8 112.387 167.197 111.453 167.99 110.66C168.783 109.82 169.74 109.4 170.86 109.4C171.747 109.4 172.54 109.68 173.24 110.24C175.107 111.78 176.927 112.9 178.7 113.6C180.473 114.3 182.573 114.65 185 114.65C187.613 114.65 189.853 114.067 191.72 112.9C193.633 111.733 194.59 110.287 194.59 108.56C194.59 106.46 193.657 104.827 191.79 103.66C189.923 102.447 186.96 101.537 182.9 100.93C172.68 99.4367 167.57 94.6767 167.57 86.65C167.57 83.71 168.34 81.1667 169.88 79.02C171.42 76.8267 173.52 75.17 176.18 74.05C178.84 72.8833 181.803 72.3 185.07 72.3C188.01 72.3 190.763 72.7433 193.33 73.63C195.943 74.5167 198.113 75.6833 199.84 77.13C201.193 78.2033 201.87 79.44 201.87 80.84C201.87 81.9133 201.473 82.87 200.68 83.71C199.887 84.5033 198.953 84.9 197.88 84.9C197.18 84.9 196.55 84.69 195.99 84.27C194.777 83.29 193.073 82.4033 190.88 81.61C188.733 80.77 186.797 80.35 185.07 80.35C182.13 80.35 179.843 80.91 178.21 82.03C176.623 83.1033 175.83 84.5267 175.83 86.3C175.83 88.3067 176.647 89.8233 178.28 90.85C179.96 91.8767 182.573 92.7167 186.12 93.37C190.133 94.07 193.33 94.98 195.71 96.1C198.137 97.1733 199.957 98.6667 201.17 100.58C202.383 102.447 202.99 104.943 202.99 108.07C202.99 111.01 202.15 113.6 200.47 115.84C198.837 118.033 196.643 119.737 193.89 120.95C191.137 122.117 188.173 122.7 185 122.7ZM243.218 73C244.478 73 245.504 73.3733 246.298 74.12C247.091 74.8667 247.488 75.8467 247.488 77.06C247.488 78.2733 247.091 79.2533 246.298 80C245.504 80.7 244.478 81.05 243.218 81.05H232.228V117.73C232.228 118.943 231.784 119.97 230.898 120.81C230.011 121.603 228.914 122 227.608 122C226.301 122 225.228 121.603 224.388 120.81C223.548 119.97 223.128 118.943 223.128 117.73V81.05H212.138C210.878 81.05 209.851 80.6767 209.058 79.93C208.264 79.1833 207.868 78.2033 207.868 76.99C207.868 75.8233 208.264 74.8667 209.058 74.12C209.898 73.3733 210.924 73 212.138 73H243.218ZM282.556 113.95C283.769 113.95 284.773 114.37 285.566 115.21C286.406 116.003 286.826 116.937 286.826 118.01C286.826 119.177 286.406 120.133 285.566 120.88C284.773 121.627 283.769 122 282.556 122H259.106C257.893 122 256.866 121.603 256.026 120.81C255.233 119.97 254.836 118.943 254.836 117.73V77.27C254.836 76.0567 255.233 75.0533 256.026 74.26C256.866 73.42 257.893 73 259.106 73H282.556C283.769 73 284.773 73.3967 285.566 74.19C286.406 74.9367 286.826 75.9167 286.826 77.13C286.826 78.2967 286.429 79.2533 285.636 80C284.843 80.7 283.816 81.05 282.556 81.05H263.586V92.95H279.406C280.619 92.95 281.623 93.3467 282.416 94.14C283.256 94.8867 283.676 95.8667 283.676 97.08C283.676 98.2467 283.279 99.2033 282.486 99.95C281.693 100.65 280.666 101 279.406 101H263.586V113.95H282.556ZM337.385 72.93C338.551 72.93 339.555 73.35 340.395 74.19C341.281 74.9833 341.725 75.9867 341.725 77.2V117.73C341.725 118.943 341.328 119.97 340.535 120.81C339.741 121.603 338.691 122 337.385 122C336.078 122 335.005 121.603 334.165 120.81C333.371 120.017 332.975 118.99 332.975 117.73V89.52L321.425 107.16C320.958 107.72 320.421 108.187 319.815 108.56C319.208 108.887 318.578 109.027 317.925 108.98C317.318 109.027 316.711 108.887 316.105 108.56C315.498 108.187 314.961 107.72 314.495 107.16L302.945 88.89V117.73C302.945 118.99 302.571 120.017 301.825 120.81C301.078 121.603 300.098 122 298.885 122C297.718 122 296.761 121.603 296.015 120.81C295.268 119.97 294.895 118.943 294.895 117.73V77.2C294.895 76.0333 295.315 75.03 296.155 74.19C297.041 73.35 298.091 72.93 299.305 72.93C300.005 72.93 300.705 73.1167 301.405 73.49C302.105 73.8167 302.641 74.26 303.015 74.82L318.275 98.27L333.955 74.82C334.328 74.26 334.818 73.8167 335.425 73.49C336.078 73.1167 336.731 72.93 337.385 72.93ZM354.768 104.71C353.555 104.71 352.528 104.313 351.688 103.52C350.895 102.727 350.498 101.723 350.498 100.51C350.498 99.3433 350.895 98.3633 351.688 97.57C352.528 96.7767 353.555 96.38 354.768 96.38H366.948C368.161 96.38 369.165 96.8 369.958 97.64C370.798 98.4333 371.218 99.4367 371.218 100.65C371.218 101.817 370.798 102.797 369.958 103.59C369.165 104.337 368.161 104.71 366.948 104.71H354.768ZM398.692 83.85C401.912 83.85 404.829 84.69 407.442 86.37C410.055 88.0033 412.109 90.29 413.602 93.23C415.142 96.17 415.912 99.5067 415.912 103.24C415.912 106.973 415.165 110.333 413.672 113.32C412.179 116.26 410.125 118.57 407.512 120.25C404.945 121.883 402.099 122.7 398.972 122.7C396.732 122.7 394.609 122.257 392.602 121.37C390.642 120.437 389.009 119.317 387.702 118.01V118.43C387.702 119.643 387.305 120.67 386.512 121.51C385.719 122.303 384.715 122.7 383.502 122.7C382.289 122.7 381.285 122.303 380.492 121.51C379.699 120.717 379.302 119.69 379.302 118.43V74.47C379.302 73.2567 379.699 72.2533 380.492 71.46C381.285 70.62 382.289 70.2 383.502 70.2C384.715 70.2 385.719 70.62 386.512 71.46C387.305 72.2533 387.702 73.2567 387.702 74.47V89.1C388.822 87.7 390.385 86.4867 392.392 85.46C394.399 84.3867 396.499 83.85 398.692 83.85ZM397.642 115C400.629 115 403.079 113.88 404.992 111.64C406.905 109.4 407.862 106.6 407.862 103.24C407.862 99.88 406.905 97.1033 404.992 94.91C403.125 92.67 400.675 91.55 397.642 91.55C394.609 91.55 392.135 92.67 390.222 94.91C388.309 97.1033 387.352 99.88 387.352 103.24C387.352 106.6 388.309 109.4 390.222 111.64C392.135 113.88 394.609 115 397.642 115ZM458.895 103.31C458.895 107.043 458.055 110.403 456.375 113.39C454.695 116.33 452.385 118.617 449.445 120.25C446.552 121.883 443.355 122.7 439.855 122.7C436.309 122.7 433.089 121.883 430.195 120.25C427.302 118.617 425.015 116.33 423.335 113.39C421.655 110.403 420.815 107.043 420.815 103.31C420.815 99.5767 421.655 96.24 423.335 93.3C425.015 90.3133 427.302 88.0033 430.195 86.37C433.089 84.69 436.309 83.85 439.855 83.85C443.355 83.85 446.552 84.69 449.445 86.37C452.385 88.0033 454.695 90.3133 456.375 93.3C458.055 96.24 458.895 99.5767 458.895 103.31ZM450.495 103.31C450.495 101.023 450.005 98.9933 449.025 97.22C448.092 95.4 446.809 94 445.175 93.02C443.589 92.04 441.815 91.55 439.855 91.55C437.895 91.55 436.099 92.04 434.465 93.02C432.879 94 431.595 95.4 430.615 97.22C429.682 98.9933 429.215 101.023 429.215 103.31C429.215 105.597 429.682 107.627 430.615 109.4C431.595 111.173 432.879 112.55 434.465 113.53C436.099 114.51 437.895 115 439.855 115C441.815 115 443.589 114.51 445.175 113.53C446.809 112.55 448.092 111.173 449.025 109.4C450.005 107.627 450.495 105.597 450.495 103.31ZM493.703 84.55C494.917 84.55 495.92 84.97 496.713 85.81C497.507 86.6033 497.903 87.6067 497.903 88.82V106.6C497.903 111.64 496.503 115.583 493.703 118.43C490.95 121.277 487.007 122.7 481.873 122.7C476.74 122.7 472.797 121.277 470.043 118.43C467.29 115.583 465.913 111.64 465.913 106.6V88.82C465.913 87.6067 466.31 86.6033 467.103 85.81C467.897 84.97 468.9 84.55 470.113 84.55C471.327 84.55 472.33 84.97 473.123 85.81C473.917 86.6033 474.313 87.6067 474.313 88.82V106.6C474.313 109.447 474.943 111.57 476.203 112.97C477.463 114.323 479.353 115 481.873 115C484.44 115 486.353 114.323 487.613 112.97C488.873 111.57 489.503 109.447 489.503 106.6V88.82C489.503 87.6067 489.9 86.6033 490.693 85.81C491.487 84.97 492.49 84.55 493.703 84.55ZM527.017 83.85C531.777 83.85 535.067 85.2733 536.887 88.12C538.707 90.92 539.617 94.8167 539.617 99.81V117.73C539.617 118.943 539.221 119.97 538.427 120.81C537.634 121.603 536.631 122 535.417 122C534.204 122 533.201 121.603 532.407 120.81C531.614 119.97 531.217 118.943 531.217 117.73V99.81C531.217 97.2433 530.681 95.2367 529.607 93.79C528.534 92.2967 526.691 91.55 524.077 91.55C521.371 91.55 519.247 92.3433 517.707 93.93C516.167 95.47 515.397 97.43 515.397 99.81V117.73C515.397 118.943 515.001 119.97 514.207 120.81C513.414 121.603 512.411 122 511.197 122C509.984 122 508.981 121.603 508.187 120.81C507.394 119.97 506.997 118.943 506.997 117.73V88.82C506.997 87.6067 507.394 86.6033 508.187 85.81C508.981 84.97 509.984 84.55 511.197 84.55C512.411 84.55 513.414 84.97 514.207 85.81C515.001 86.6033 515.397 87.6067 515.397 88.82V90.01C516.657 88.33 518.291 86.8833 520.297 85.67C522.351 84.4567 524.591 83.85 527.017 83.85ZM579.006 70.2C580.22 70.2 581.223 70.5967 582.016 71.39C582.81 72.1833 583.206 73.21 583.206 74.47V117.73C583.206 118.943 582.81 119.97 582.016 120.81C581.223 121.603 580.22 122 579.006 122C577.793 122 576.79 121.603 575.996 120.81C575.25 120.017 574.853 119.013 574.806 117.8C573.64 119.153 572.053 120.32 570.046 121.3C568.086 122.233 566.01 122.7 563.816 122.7C560.596 122.7 557.68 121.883 555.066 120.25C552.453 118.57 550.376 116.26 548.836 113.32C547.343 110.38 546.596 107.043 546.596 103.31C546.596 99.5767 547.343 96.24 548.836 93.3C550.33 90.3133 552.36 88.0033 554.926 86.37C557.54 84.69 560.41 83.85 563.536 83.85C565.776 83.85 567.876 84.27 569.836 85.11C571.796 85.9033 573.453 86.93 574.806 88.19V74.47C574.806 73.2567 575.203 72.2533 575.996 71.46C576.79 70.62 577.793 70.2 579.006 70.2ZM564.866 115C567.9 115 570.373 113.903 572.286 111.71C574.2 109.47 575.156 106.67 575.156 103.31C575.156 99.95 574.2 97.15 572.286 94.91C570.373 92.67 567.9 91.55 564.866 91.55C561.88 91.55 559.43 92.67 557.516 94.91C555.603 97.15 554.646 99.95 554.646 103.31C554.646 106.67 555.58 109.47 557.446 111.71C559.36 113.903 561.833 115 564.866 115Z" fill="white"/>
</svg>
